<?xml version="1.0" standalone="no"?>
<!DOCTYPE svg PUBLIC "-//W3C//DTD SVG 20010904//EN"
 "http://www.w3.org/TR/2001/REC-SVG-20010904/DTD/svg10.dtd">
<svg version="1.0" xmlns="http://www.w3.org/2000/svg"
 width="782.000000pt" height="782.000000pt" viewBox="0 0 782.000000 782.000000"
 preserveAspectRatio="xMidYMid meet">

<g transform="translate(0.000000,782.000000) scale(0.100000,-0.100000)"
fill="#000000" stroke="none">
<path d="M2587 5612 c-102 -35 -113 -42 -211 -127 -77 -67 -149 -146 -279
-305 -169 -208 -179 -223 -282 -420 -59 -113 -111 -208 -114 -212 -4 -5 -148
39 -321 97 -173 58 -376 121 -451 141 l-135 35 -149 -31 c-82 -17 -150 -32
-151 -33 -7 -8 -134 -371 -134 -383 0 -8 12 -55 27 -103 l27 -89 196 -70 c107
-39 339 -117 515 -173 176 -56 334 -106 352 -112 41 -13 44 -32 29 -184 -11
-112 -10 -130 9 -223 19 -91 25 -104 62 -143 41 -42 42 -46 137 -392 95 -348
96 -352 256 -732 l160 -382 0 -235 c0 -282 -13 -521 -43 -796 -21 -194 -26
-366 -12 -455 l6 -41 101 8 c55 4 102 9 103 10 1 2 -2 48 -7 103 -5 71 -4 136
7 225 32 273 47 511 52 855 l5 360 -167 400 -168 400 -103 373 c-100 364 -104
374 -142 416 -32 34 -41 54 -47 95 -6 47 2 227 11 242 6 11 225 -70 277 -102
33 -20 60 -29 91 -29 36 0 101 -15 115 -26 2 -2 -17 -32 -43 -68 -25 -36 -71
-117 -101 -182 l-55 -116 0 -117 c0 -116 22 -250 52 -317 l13 -31 98 30 c79
24 97 33 92 46 -25 62 -45 175 -45 253 0 81 3 95 40 177 29 64 40 102 40 137
0 67 22 145 66 233 44 90 160 212 247 261 31 18 62 41 67 51 6 10 17 16 25 13
8 -4 26 -3 39 0 24 6 25 7 10 41 -23 55 -18 133 12 193 27 55 105 132 163 162
42 21 57 37 101 110 46 76 136 176 186 205 42 25 45 25 278 25 233 0 236 0
388 -35 187 -43 365 -93 493 -140 73 -26 111 -47 154 -83 102 -88 233 -157
415 -217 127 -42 181 -55 226 -55 67 0 71 -5 46 -64 -10 -24 -32 -44 -77 -71
-35 -21 -98 -62 -139 -90 -137 -95 -160 -102 -410 -137 -98 -13 -238 -23 -379
-27 l-224 -6 -39 -60 c-21 -33 -42 -70 -48 -83 -15 -35 -117 -206 -186 -313
l-62 -97 55 -95 54 -95 -25 -76 c-15 -42 -44 -112 -65 -154 l-39 -78 94 -47
95 -47 29 61 c25 54 30 58 39 41 7 -14 7 -38 -1 -82 -12 -72 -11 -74 64 -84
l50 -7 73 -152 c143 -299 161 -351 184 -542 29 -239 29 -250 -17 -306 -20 -26
-86 -91 -147 -146 l-110 -99 -168 -68 c-92 -38 -170 -73 -173 -78 -4 -5 11
-50 31 -99 30 -72 41 -88 55 -84 9 3 96 38 193 78 l177 73 137 126 c76 68 164
159 196 200 l57 75 0 86 c0 48 -11 173 -25 279 -24 190 -25 195 -83 333 -32
77 -91 206 -131 287 -39 80 -71 149 -71 152 0 3 30 6 68 6 37 0 129 7 205 17
l137 16 146 -71 145 -72 158 0 c88 0 161 4 167 10 5 5 19 7 30 4 20 -5 22 -17
33 -197 12 -178 11 -204 -8 -352 -33 -258 -73 -414 -157 -615 -86 -207 -165
-347 -254 -452 l-65 -76 -87 -1 c-107 -1 -204 21 -358 82 -104 42 -245 77
-305 77 -21 0 -24 -6 -30 -60 -5 -41 -22 -91 -52 -153 -25 -51 -65 -144 -90
-207 -25 -63 -47 -120 -50 -126 -4 -11 183 -93 190 -83 2 2 25 58 51 124 52
131 117 265 128 265 4 0 56 -20 115 -44 59 -24 155 -54 213 -66 58 -13 106
-24 108 -25 2 -2 -6 -18 -16 -36 -30 -51 -80 -350 -84 -494 l-3 -120 101 -3
101 -3 6 68 c4 37 7 90 7 118 0 27 12 112 27 190 25 137 27 142 83 225 32 47
100 135 153 195 122 141 203 281 305 527 92 223 136 396 173 682 20 157 20
182 9 343 -6 96 -10 176 -8 177 2 1 478 -75 1058 -170 580 -95 1056 -171 1057
-170 3 3 -268 156 -867 489 -435 242 -881 497 -903 517 -5 4 17 58 48 120 51
103 59 125 76 239 l20 125 -43 105 -43 104 -97 77 c-84 68 -109 82 -192 110
l-96 32 0 46 c0 26 -10 139 -22 251 l-23 203 -57 65 c-45 51 -91 86 -213 163
l-156 97 -188 7 c-148 5 -196 3 -234 -8 -26 -8 -49 -11 -51 -8 -2 4 -7 30 -10
57 -6 37 -27 82 -79 168 l-71 119 -136 68 c-84 42 -192 86 -285 115 l-150 48
-132 -6 -133 -6 -74 -50 -75 -51 -28 53 c-33 61 -115 122 -203 150 -58 19
-381 68 -440 66 -19 0 -84 -17 -143 -37z m344 -196 c208 -30 237 -44 278 -125
39 -77 68 -194 77 -308 l7 -93 -46 0 c-110 0 -305 -171 -417 -365 -49 -85
-173 -277 -196 -304 -2 -2 -19 0 -39 3 -36 7 -96 58 -129 108 -15 24 -30 162
-41 378 -5 95 -23 221 -40 277 -3 8 -28 6 -91 -8 -48 -11 -90 -18 -95 -17 -15
6 223 285 303 355 65 58 97 78 153 97 38 14 79 25 90 25 11 0 95 -10 186 -23z
m997 -177 c70 -23 166 -61 215 -85 83 -42 90 -48 134 -117 41 -63 49 -86 69
-187 12 -63 21 -116 20 -117 0 0 -55 14 -121 34 -66 19 -205 54 -309 79 -169
39 -201 44 -310 44 l-122 0 -12 123 c-6 67 -13 131 -17 142 -4 16 6 28 55 60
97 64 100 65 188 65 70 0 102 -6 210 -41z m-1725 -389 c8 -41 18 -136 21 -210
3 -74 9 -170 12 -212 4 -46 3 -78 -2 -78 -5 0 -54 29 -109 65 l-100 65 -19
-24 c-18 -24 -19 -24 -62 -8 -24 9 -44 19 -44 23 0 3 43 89 97 190 95 182 172
296 184 275 4 -6 13 -45 22 -86z m2697 -130 c47 0 64 -6 120 -41 l65 -41 -210
6 c-217 6 -275 12 -275 28 0 5 12 21 26 35 25 25 28 26 122 19 54 -3 122 -6
152 -6z m-3975 -149 c138 -37 606 -193 910 -301 127 -45 327 -116 445 -157
118 -41 215 -75 216 -76 2 -2 -179 -274 -188 -283 -3 -2 -200 65 -439 150
-239 85 -555 193 -704 241 -148 47 -341 111 -427 142 -140 49 -158 59 -158 78
0 20 62 201 73 211 7 8 132 32 147 28 8 -2 65 -17 125 -33z m4255 -159 c19 -9
36 -25 38 -35 5 -25 -56 -22 -156 7 -129 39 -131 45 -17 45 74 0 109 -4 135
-17z m368 -548 c18 -7 59 -34 92 -59 81 -64 105 -120 95 -222 -6 -62 -16 -93
-67 -196 -33 -67 -61 -123 -62 -124 -3 -3 -387 125 -393 131 -3 2 33 60 78
127 82 123 146 245 170 327 13 46 14 46 87 16z m-349 -96 c-38 -76 -200 -307
-212 -303 -7 2 -91 30 -187 61 l-175 58 115 17 c173 25 238 53 405 169 39 26
71 47 73 45 2 -2 -7 -23 -19 -47z m-1038 -237 c30 -11 198 -69 374 -130 176
-62 334 -118 350 -125 17 -7 66 -25 110 -38 350 -111 471 -152 480 -163 6 -6
27 -17 48 -24 20 -7 37 -15 37 -17 0 -19 -124 -354 -131 -354 -10 0 -1512 530
-1517 535 -2 2 189 333 194 335 0 0 25 -9 55 -19z m1649 -582 c58 -34 191
-111 295 -171 105 -60 193 -113 197 -116 12 -12 -4 -52 -21 -52 -30 -1 -726
113 -734 120 -12 11 32 118 64 154 16 18 26 36 23 39 -7 7 53 87 65 87 3 0 53
-27 111 -61z m-1675 -23 l160 -54 -132 -1 -131 -1 -36 50 c-37 52 -41 60 -28
60 4 0 79 -24 167 -54z"/>
<path d="M3742 2357 c-76 -78 -131 -120 -331 -253 -133 -87 -241 -162 -241
-165 0 -4 8 -16 18 -28 17 -21 17 -21 262 143 202 135 261 181 338 258 l93 94
-24 22 -23 22 -92 -93z"/>
<path d="M3844 2251 c-82 -86 -117 -113 -343 -261 -138 -91 -251 -168 -251
-171 0 -4 8 -16 18 -28 17 -21 18 -20 265 143 254 167 284 191 388 307 l58 66
-22 20 -22 21 -91 -97z"/>
<path d="M2719 1237 c-6 -23 -18 -68 -27 -100 -8 -31 -13 -59 -11 -61 18 -15
349 -91 466 -107 80 -10 146 -19 148 -19 5 0 28 200 24 204 -3 3 -63 12 -134
21 -109 14 -270 49 -422 94 -32 9 -33 9 -44 -32z"/>
<path d="M3603 883 c-51 -117 -92 -262 -122 -444 -17 -102 -42 -226 -56 -275
-13 -49 -21 -92 -17 -95 4 -4 47 -19 96 -34 68 -21 90 -24 96 -15 14 23 68
263 90 397 24 152 57 275 100 370 17 36 29 67 28 68 -11 9 -170 85 -178 85 -6
0 -23 -26 -37 -57z"/>
</g>
</svg>
